<svg width="220" height="64" viewBox="0 0 220 64" fill="none" xmlns="http://www.w3.org/2000/svg">
<path d="M96.9847 34.0207V11.0113H107.224L110.379 18.7353C110.823 19.8196 111.446 21.7096 112.154 24.3886H112.501C113.223 21.7096 113.865 19.7865 114.293 18.7187L117.366 11.0098H127.524V34.0192H119.306V26.7379C119.306 25.4398 119.339 24.0588 119.503 22.1026L119.175 22.0529L115.214 34.0177H109.297L105.353 22.0529L105.008 22.1026C105.156 24.0588 105.206 25.4398 105.206 26.7379V34.0192H96.9847V34.0207Z" fill="#040A44"/>
<path d="M198.014 25.6566V25.1144C198.014 19.4445 201.663 16.2715 208.795 16.2715C215.929 16.2715 219.576 19.443 219.576 25.1144V25.6566C219.576 31.3099 215.911 34.5161 208.795 34.5161C201.663 34.5146 198.014 31.3099 198.014 25.6566ZM210.982 26.2153V24.5723C210.982 22.3857 210.276 21.3676 208.795 21.3676C207.316 21.3676 206.609 22.3872 206.609 24.5723V26.2153C206.609 28.3854 207.315 29.42 208.795 29.42C210.276 29.42 210.982 28.3839 210.982 26.2153Z" fill="#040A44"/>
<path d="M101.801 63.5027L96.9847 40.4932H105.564L107.257 50.7488C107.52 52.327 107.749 54.217 107.882 56.4021H108.21C108.457 54.232 108.752 52.2442 109.049 50.6659L110.939 40.4917H118.154L120.274 50.7141C120.603 52.2924 120.866 54.232 121.063 56.4006H121.425C121.606 54.2305 121.819 52.3737 122.05 50.7955L123.529 40.4902H131.828L127.226 63.4997H116.592L115.359 56.8599C115.162 55.8088 114.833 53.4083 114.586 50.7789H114.241C114.011 53.4083 113.683 55.7756 113.485 56.8434L112.285 63.4997H101.801V63.5027Z" fill="#040A44"/>
<path d="M152.588 56.537H139.784C139.85 58.3607 140.623 59.2492 142.118 59.2492C143.367 59.2492 144.058 58.7071 144.222 57.3758L152.538 57.8848C151.996 61.9117 148.461 63.999 142.085 63.999C134.87 63.999 131.254 60.975 131.254 55.1244V54.7133C131.254 48.8129 134.903 45.7559 142.151 45.7559C149.186 45.7559 152.752 48.7301 152.752 54.3518C152.752 55.0747 152.702 55.7976 152.588 56.537ZM144.205 52.7902V52.7405C144.205 51.2119 143.499 50.4891 142.069 50.4891C140.77 50.4891 140.031 51.2616 139.834 52.7902H144.205Z" fill="#040A44"/>
<path d="M192.877 11.0117H187.859V15.269V19.567C186.521 17.5129 184.619 16.4678 181.892 16.4678C177.29 16.4678 175.055 19.1966 175.055 24.9975V25.7866C175.055 31.5228 177.29 34.3163 181.892 34.3163C184.686 34.3163 186.57 33.2351 187.859 31.193V34.0197H187.875H192.877H196.289V11.0117H192.877ZM185.607 29.3858C184.177 29.3858 183.487 28.3347 183.487 26.1315V24.5864C183.487 22.3681 184.177 21.2989 185.607 21.2989C187.119 21.2989 187.859 22.4329 187.859 24.7505V25.9673C187.859 28.2684 187.119 29.3858 185.607 29.3858Z" fill="#040A44"/>
<path d="M167.544 16.4668C164.565 16.4668 162.425 17.5707 160.773 19.8311V17.0255C160.774 16.9397 160.774 16.8523 160.773 16.762H154.865H152.522V34.0202H154.865H160.773V26.0989C160.773 23.4529 161.612 21.9741 163.14 21.9741C164.274 21.9741 164.8 22.6156 164.8 23.9634V34.0217H173.412V21.712C173.412 18.1761 171.39 16.4668 167.544 16.4668Z" fill="#040A44"/>
<path d="M149.179 16.7632H142.316H142.135V24.6845C142.135 27.3305 141.297 28.7928 139.753 28.7928C138.635 28.7928 138.093 28.1512 138.093 26.8034V16.7617H129.678V29.0714C129.678 32.5893 131.683 34.3151 135.529 34.3151C138.509 34.3151 140.661 33.2097 142.316 30.9493V33.5441C142.312 33.6977 142.312 33.8543 142.316 34.0199H149.179H150.549V16.7617H149.179V16.7632Z" fill="#040A44"/>
<path d="M168.874 45.8689C166.136 45.8689 164.23 46.9833 162.891 49.0705V45.4879C162.902 45.2484 162.908 45.0045 162.908 44.7515V40.4941H162.891H158.367H154.476V63.5036H158.367H162.891V60.6513C164.18 62.71 166.069 63.8003 168.874 63.8003C173.476 63.8003 175.711 61.0067 175.711 55.2705V54.4814C175.711 48.679 173.476 45.8689 168.874 45.8689ZM167.281 55.6154C167.281 57.8171 166.591 58.8698 165.161 58.8698C163.649 58.8698 162.909 57.7524 162.909 55.4513V54.2344C162.909 51.9168 163.649 50.7828 165.161 50.7828C166.59 50.7828 167.281 51.8505 167.281 54.0703V55.6154Z" fill="#040A44"/>
<path d="M63.9985 32V21.3333C63.9985 9.55075 54.4477 0 42.6652 0V10.6667C42.6652 22.4492 52.2174 32 63.9985 32C52.2159 32 42.6652 41.5507 42.6652 53.3333V32V21.3333C42.6652 9.55075 33.1144 0 21.3318 0H0V32H21.3333V10.6667C21.3333 22.4492 30.8841 32 42.6667 32H21.3333V64H42.6667C54.4492 64 64 54.4492 64 42.6666V32H63.9985Z" fill="#303BE4"/>
<path d="M85.3314 32C73.5488 32 63.9981 41.5507 63.9981 53.3333V64C75.7807 64 85.3314 54.4492 85.3314 42.6667V32Z" fill="#303BE4"/>
</svg>
