<svg width="64" height="90" viewBox="0 0 64 90" fill="none" xmlns="http://www.w3.org/2000/svg">
<g clip-path="url(#clip0_86_3287)">
<path d="M36.0387 89.2939C35.9166 89.2939 35.8207 89.198 35.8207 89.076V89.015C35.8512 86.1077 35.4154 60.2339 11.3331 46.4166C11.2285 46.3556 11.1936 46.2248 11.2546 46.1202C11.3157 46.0156 11.4464 45.9807 11.551 46.0417C35.8512 59.9855 36.2871 86.0902 36.261 89.0237V89.0804C36.261 89.2024 36.1651 89.2983 36.043 89.2983L36.0387 89.2939Z" fill="#DF3876"/>
<path d="M38.1758 81.0654C38.093 81.4446 38.0363 81.8326 37.9971 82.1944C37.9579 82.5387 37.9404 82.8961 37.7617 83.1925C37.8271 86.3788 38.0276 88.3315 38.0363 88.41C38.0494 88.5233 38.1453 88.6061 38.2543 88.6061C38.263 88.6061 38.2717 88.6061 38.2804 88.6061C38.3981 88.593 38.4853 88.4841 38.4722 88.3664C38.4635 88.2661 38.1714 85.4678 38.1758 81.0698V81.0654Z" fill="#DF3876"/>
<path d="M54.0984 32.887C54.0112 32.7998 53.8761 32.8042 53.7889 32.887C47.813 38.937 44.0209 46.4777 41.6279 54.0271C41.8415 53.9268 42.0812 53.7743 42.2251 53.5781C44.605 46.2815 48.3274 39.0372 54.0984 33.1921C54.1812 33.1049 54.1812 32.9698 54.0984 32.8826V32.887Z" fill="#DF3876"/>
<path d="M33.5167 57.9972C33.338 57.4872 33.2073 56.9598 32.998 56.4629C33.4949 65.9127 34.6195 76.8184 36.7335 89.1102C36.751 89.2148 36.8425 89.2932 36.9471 89.2932C36.9602 89.2932 36.9733 89.2932 36.9863 89.2932C37.104 89.2715 37.1825 89.1581 37.165 89.0404C35.1687 77.4374 34.0572 67.0678 33.5211 58.0015L33.5167 57.9972Z" fill="#DF3876"/>
<path d="M55.2441 30.5944C55.2441 30.5944 56.9877 26.5277 58.7312 27.1815C60.4747 27.8353 56.3338 30.3068 55.2441 30.5944Z" fill="#DF3876"/>
<path d="M54.303 31.3174C54.303 31.3174 55.3927 28.92 54.486 27.3944C53.5794 25.8689 53.3615 28.5931 54.303 31.3174Z" fill="#DF3876"/>
<path d="M53.6877 31.8273C53.6877 31.8273 53.7357 28.9113 52.0488 28.2313C50.362 27.5513 52.3888 30.8465 53.6877 31.8273Z" fill="#DF3876"/>
<path d="M53.9443 32.0283C53.9443 32.0283 55.2084 30.5027 56.5901 30.9909C57.9719 31.4791 55.3348 32.0457 53.9443 32.0283Z" fill="#DF3876"/>
<path d="M54.4287 32.4812C54.4287 32.4812 56.0153 33.8629 57.2009 33.427C58.3865 32.9911 56.0284 32.3547 54.4287 32.4812Z" fill="#DF3876"/>
<path d="M56.4248 32.1374C56.4248 32.1374 58.3296 32.8827 59.367 32.1374C60.4 31.392 59.9641 30.8646 58.6391 31.1392C57.314 31.4138 56.4248 32.1374 56.4248 32.1374Z" fill="#DF3876"/>
<path d="M53.4831 32.4642C53.4831 32.4642 50.1617 32.3291 49.5602 31.4617C48.9587 30.5943 51.1947 30.542 53.4831 32.4642Z" fill="#DF3876"/>
<path d="M53.483 32.9006C53.5222 32.9006 52.5371 34.2998 51.1031 34.3913C49.669 34.4828 51.443 32.8308 53.483 32.9006Z" fill="#DF3876"/>
<path d="M54.4284 33.0391C54.4284 33.0391 53.8791 34.9308 54.8424 35.4625C55.8057 35.9943 54.9514 33.4183 54.4284 33.0391Z" fill="#DF3876"/>
<path d="M53.945 33.6455C53.945 33.6455 52.5807 34.6219 52.62 35.6288C52.6592 36.6356 54.2022 35.4631 53.945 33.6455Z" fill="#DF3876"/>
<path d="M55.1655 33.3398C55.2178 33.3398 56.6649 33.6275 57.2621 34.5777C57.8592 35.528 56.5952 35.9813 56.2116 35.1793C55.8324 34.3772 55.1611 33.3398 55.1611 33.3398H55.1655Z" fill="#DF3876"/>
<path d="M57.2002 30.4673C57.2002 30.4673 58.5863 28.2356 60.4126 28.5887C62.239 28.9417 59.5191 30.5501 57.2002 30.4673Z" fill="#DF3876"/>
<path d="M57.9854 33.3406C57.9854 33.3406 59.5371 34.3606 61.0103 33.8157C62.4836 33.2709 60.5222 32.1245 57.9854 33.3406Z" fill="#DF3876"/>
<path d="M57.5234 34.4697C57.5234 34.4697 58.8877 36.5707 60.3305 36.3527C61.7733 36.1348 60.1605 34.522 57.5234 34.4697Z" fill="#DF3876"/>
<path d="M55.4616 28.85C55.4616 28.85 54.446 26.1606 55.6709 25.3455C56.8957 24.5304 56.6124 27.0454 55.4616 28.85Z" fill="#DF3876"/>
<path d="M53.1383 28.3148C53.1383 28.3148 52.0747 27.905 51.5866 26.763C51.0984 25.621 52.8201 24.9934 53.1383 28.3148Z" fill="#DF3876"/>
<path d="M52.0359 30.8861C52.0359 30.8861 50.0178 30.8468 49.2157 29.8487C48.4181 28.8505 50.0221 28.0921 52.0359 30.8861Z" fill="#DF3876"/>
<path d="M56.4688 27.3768C56.4688 27.3768 56.4993 24.4347 57.99 24.3998C59.4807 24.3649 57.4931 26.7056 56.4688 27.3768Z" fill="#DF3876"/>
<path d="M54.6645 26.288C54.6645 26.288 55.3925 24.6884 54.4292 23.943C53.4659 23.1977 53.4484 25.1591 54.6645 26.288Z" fill="#DF3876"/>
<path d="M53.4824 26.3966C53.4824 26.3966 53.9182 24.6008 52.9942 23.9992C52.0701 23.3977 51.6517 25.0889 53.4824 26.3966Z" fill="#DF3876"/>
<path d="M58.3691 26.2883C58.3691 26.2883 59.947 23.5902 61.0106 24.401C62.0741 25.2117 59.9209 26.5803 58.3691 26.2883Z" fill="#DF3876"/>
<path d="M56.6256 24.6925C56.691 24.7448 57.4407 23.52 56.6256 22.6221C55.8105 21.7242 55.2264 23.5505 56.6256 24.6925Z" fill="#DF3876"/>
<path d="M59.9425 26.9596C59.8554 26.9247 61.6381 25.7566 62.5927 26.5455C63.5473 27.3344 61.5161 27.6265 59.9425 26.9596Z" fill="#DF3876"/>
<path d="M60.3037 30.4676C60.3037 30.4676 61.8554 28.9507 63.0803 29.914C64.3051 30.8729 61.7988 31.2347 60.3037 30.4676Z" fill="#DF3876"/>
<path d="M60.4053 31.9361C60.4053 31.9361 61.9657 33.2699 63.2385 32.8035C64.5112 32.3372 62.8026 30.938 60.4053 31.9361Z" fill="#DF3876"/>
<path d="M50.8247 28.9425C50.8247 28.9425 48.5364 28.3672 48.811 26.6542C49.0856 24.9412 51.1385 27.7046 50.8247 28.9425Z" fill="#DF3876"/>
<path d="M51.0813 27.0771C51.0813 27.0771 49.2114 25.5994 49.8216 24.6056C50.4275 23.6118 51.4387 25.4338 51.0813 27.0771Z" fill="#DF3876"/>
<path d="M51.7741 24.6365C51.7741 24.6365 52.271 22.8406 51.4036 22.7448C50.5362 22.6489 50.7803 24.1047 51.7741 24.6365Z" fill="#DF3876"/>
<path d="M53.3563 23.9951C53.3563 23.9951 52.0225 23.1495 52.5238 22.3039C53.0294 21.4583 54.1801 22.5567 53.3563 23.9951Z" fill="#DF3876"/>
<path d="M55.0648 23.877C55.0386 23.9163 53.7789 23.5065 54.1974 22.4866C54.6202 21.4666 55.9278 22.5345 55.0648 23.877Z" fill="#DF3876"/>
<path d="M60.8711 28.0707C60.8711 28.0707 62.8369 27.0725 63.7784 27.8876C64.7243 28.707 62.4141 29.958 60.8711 28.0707Z" fill="#DF3876"/>
<path d="M51.722 32.6474C51.722 32.6474 49.778 31.7233 48.8888 32.3379C47.9996 32.9525 49.6516 34.1337 51.722 32.6474Z" fill="#DF3876"/>
<path d="M55.6099 35.5373C55.5663 35.5112 54.8601 37.7472 56.2985 38.0218C57.7369 38.2964 56.8783 36.3263 55.6099 35.5373Z" fill="#DF3876"/>
<path d="M57.3145 36.2044C57.3145 36.2044 57.5498 37.9131 58.7311 37.8041C59.9123 37.6951 59.7641 36.1521 57.3145 36.2044Z" fill="#DF3876"/>
<path d="M53.9757 35.6589C53.9539 35.624 52.5416 36.9665 53.069 37.8906C53.5965 38.8146 55.5753 37.9995 53.9757 35.6589Z" fill="#DF3876"/>
<path d="M60.584 34.8227C60.584 34.8227 61.8132 36.0257 62.9857 35.3152C64.1582 34.6048 62.4452 33.5805 60.584 34.8227Z" fill="#DF3876"/>
<path d="M49.1063 30.5942C49.1063 30.5942 48.7968 29.304 47.8161 29.3781C46.8354 29.4522 46.7874 31.0562 49.1063 30.5942Z" fill="#DF3876"/>
<path d="M57.4929 23.7816C57.3664 23.7511 58.1467 21.3974 59.4282 22.0774C60.7096 22.7573 59.3715 24.2611 57.4929 23.7816Z" fill="#DF3876"/>
<path d="M51.1554 34.8881C51.2252 34.7268 49.5427 34.8881 49.2724 35.9996C49.0022 37.1111 50.4014 36.6185 51.1554 34.8881Z" fill="#DF3876"/>
<path d="M50.1962 33.6461C50.1962 33.6461 48.0168 33.1928 47.5242 34.2433C47.0361 35.2894 49.1849 35.5988 50.1962 33.6461Z" fill="#DF3876"/>
<path d="M48.8235 31.4625C48.8235 31.4625 48.0563 30.7302 47.1759 31.3187C46.2954 31.9071 47.3153 33.3019 48.8235 31.4625Z" fill="#DF3876"/>
<path d="M48.7846 28.5502C48.7846 28.5502 48.6146 26.8285 47.599 26.9592C46.5834 27.09 46.9713 28.7028 48.7846 28.5502Z" fill="#DF3876"/>
<path d="M60.0781 23.685C60.0781 23.685 60.4791 22.4166 61.2986 22.7348C62.1137 23.053 61.6255 24.0424 60.0781 23.685Z" fill="#DF3876"/>
<path d="M9.06756 45.227C9.06756 45.227 4.80467 44.037 5.21876 42.2238C5.6372 40.4105 8.63168 44.1852 9.06756 45.227Z" fill="#DF3876"/>
<path d="M9.91407 46.0646C9.91407 46.0646 7.39469 45.3018 5.99988 46.4046C4.60943 47.5074 7.33803 47.3635 9.91407 46.0646Z" fill="#DF3876"/>
<path d="M10.4976 46.6045C10.4976 46.6045 7.60341 46.9445 7.15009 48.7054C6.70114 50.4707 9.69562 48.0211 10.4976 46.6045Z" fill="#DF3876"/>
<path d="M10.6586 46.3266C10.6586 46.3266 8.98045 45.2762 9.2812 43.8421C9.58196 42.4081 10.4929 44.9493 10.6586 46.3266Z" fill="#DF3876"/>
<path d="M11.0465 45.7852C11.0465 45.7852 12.206 44.033 11.6132 42.9128C11.0247 41.7926 10.7065 44.2204 11.0465 45.7852Z" fill="#DF3876"/>
<path d="M10.4399 43.8504C10.4399 43.8504 10.9237 41.8628 10.0476 40.9343C9.17147 40.0059 8.70944 40.5072 9.15404 41.7887C9.59864 43.0658 10.4399 43.8504 10.4399 43.8504Z" fill="#DF3876"/>
<path d="M11.1547 46.7217C11.1547 46.7217 11.4642 50.0344 10.6796 50.7448C9.89941 51.4553 9.55071 49.2454 11.1547 46.7217Z" fill="#DF3876"/>
<path d="M11.5869 46.6664C11.5869 46.6272 13.0994 47.4161 13.3784 48.8284C13.6573 50.2406 11.7831 48.6976 11.5869 46.6664Z" fill="#DF3876"/>
<path d="M11.5996 45.7111C11.5996 45.7111 13.548 46.0032 13.949 44.9789C14.3456 43.9546 11.9091 45.1401 11.5996 45.7111Z" fill="#DF3876"/>
<path d="M12.2627 46.1083C12.2627 46.1083 13.4091 47.3331 14.4029 47.1588C15.3967 46.9844 14.028 45.6157 12.2627 46.1083Z" fill="#DF3876"/>
<path d="M11.8003 44.9401C11.7916 44.8878 11.8831 43.4188 12.7505 42.6953C13.6179 41.9717 14.2282 43.1704 13.4828 43.6542C12.7375 44.138 11.8003 44.9357 11.8003 44.9357V44.9401Z" fill="#DF3876"/>
<path d="M8.67966 43.3056C8.67966 43.3056 6.28233 42.229 6.3913 40.3721C6.50027 38.5153 8.453 40.9998 8.67966 43.3056Z" fill="#DF3876"/>
<path d="M11.4257 42.146C11.4257 42.146 12.2321 40.4722 11.4954 39.0861C10.7588 37.7 9.88706 39.7966 11.4257 42.146Z" fill="#DF3876"/>
<path d="M12.6019 42.4552C12.6019 42.4552 14.5023 40.8251 14.0969 39.4215C13.6872 38.018 12.3055 39.8313 12.6019 42.4552Z" fill="#DF3876"/>
<path d="M7.31097 45.2446C7.31097 45.2446 4.78287 46.6089 3.80651 45.5018C2.8345 44.3947 5.36695 44.3424 7.31097 45.2446Z" fill="#DF3876"/>
<path d="M7.08486 47.6172C7.08486 47.6172 6.81898 48.7243 5.75108 49.3607C4.68317 49.9971 3.83321 48.3713 7.08486 47.6172Z" fill="#DF3876"/>
<path d="M9.78218 48.3711C9.78218 48.3711 10.0132 50.3761 9.12836 51.3046C8.24353 52.2286 7.28024 50.7379 9.78218 48.3711Z" fill="#DF3876"/>
<path d="M5.71574 44.4432C5.71574 44.4432 2.79536 44.8049 2.55998 43.3317C2.32461 41.8584 4.91373 43.5191 5.71574 44.4432Z" fill="#DF3876"/>
<path d="M4.87462 46.3742C4.87462 46.3742 3.19213 45.8642 2.5819 46.9191C1.97167 47.9739 3.92005 47.7298 4.87462 46.3742Z" fill="#DF3876"/>
<path d="M5.13962 47.5285C5.13962 47.5285 3.30021 47.3368 2.82946 48.3306C2.35871 49.3287 4.08915 49.5162 5.13962 47.5285Z" fill="#DF3876"/>
<path d="M4.38529 42.6998C4.38529 42.6998 1.49977 41.4924 2.16231 40.333C2.82048 39.1735 4.4681 41.1219 4.38529 42.6998Z" fill="#DF3876"/>
<path d="M3.03103 44.6437C3.07462 44.5739 1.76263 43.9899 0.978045 44.9183C0.193464 45.8467 2.08518 46.1823 3.03103 44.6437Z" fill="#DF3876"/>
<path d="M4.83979 41.0515C4.81364 41.1431 3.42319 39.5303 4.077 38.4798C4.73518 37.4294 5.2931 39.4039 4.83979 41.0515Z" fill="#DF3876"/>
<path d="M8.27037 40.228C8.27037 40.228 6.56173 38.8898 7.35067 37.5473C8.13961 36.2048 8.82829 38.6414 8.27037 40.228Z" fill="#DF3876"/>
<path d="M9.71241 39.9368C9.71241 39.9368 10.8283 38.2107 10.1962 37.012C9.56421 35.8133 8.40477 37.692 9.71241 39.9368Z" fill="#DF3876"/>
<path d="M8.01734 49.8308C8.01734 49.8308 7.75146 52.1758 6.01666 52.1322C4.27751 52.0886 6.74894 49.6826 8.01734 49.8308Z" fill="#DF3876"/>
<path d="M6.13413 49.8217C6.13413 49.8217 4.91803 51.8704 3.85448 51.3996C2.78658 50.9289 4.46035 49.6866 6.13413 49.8217Z" fill="#DF3876"/>
<path d="M3.6234 49.4561C3.6234 49.4561 1.77527 49.1989 1.79707 50.075C1.81886 50.9511 3.23111 50.5109 3.6234 49.4561Z" fill="#DF3876"/>
<path d="M2.7779 47.9732C2.7779 47.9732 2.11972 49.4073 1.2131 49.0193C0.30647 48.6314 1.24361 47.3412 2.7779 47.9732Z" fill="#DF3876"/>
<path d="M2.43295 46.2949C2.47654 46.3167 2.23681 47.62 1.16891 47.3366C0.101004 47.0533 0.985836 45.6149 2.43295 46.2949Z" fill="#DF3876"/>
<path d="M5.81624 39.9841C5.81624 39.9841 4.56527 38.1709 5.2496 37.1248C5.93393 36.0786 7.4813 38.2057 5.81624 39.9841Z" fill="#DF3876"/>
<path d="M11.5698 48.4443C11.5698 48.4443 10.9116 50.493 11.6395 51.295C12.3674 52.097 13.322 50.3012 11.5698 48.4443Z" fill="#DF3876"/>
<path d="M13.9191 44.212C13.8973 44.2599 16.2118 44.6609 16.2903 43.2007C16.3687 41.7405 14.5337 42.8477 13.9191 44.212Z" fill="#DF3876"/>
<path d="M14.3547 42.4291C14.3547 42.4291 16.0154 41.967 15.7496 40.812C15.4837 39.6569 13.9755 40.0056 14.3547 42.4291Z" fill="#DF3876"/>
<path d="M14.2544 45.8164C14.2238 45.8426 15.7407 47.063 16.5907 46.4179C17.4406 45.7728 16.364 43.9204 14.2544 45.8164Z" fill="#DF3876"/>
<path d="M12.5496 39.3737C12.5496 39.3737 13.5782 37.9964 12.7196 36.9285C11.8609 35.8606 11.0719 37.6956 12.5496 39.3737Z" fill="#DF3876"/>
<path d="M9.87818 51.3125C9.87818 51.3125 8.64029 51.7876 8.84515 52.7509C9.04566 53.7142 10.6453 53.5486 9.87818 51.3125Z" fill="#DF3876"/>
<path d="M2.01502 43.9024C2.00194 44.0331 -0.434616 43.5667 0.071003 42.2112C0.572263 40.8512 2.24168 41.9801 2.01502 43.9024Z" fill="#DF3876"/>
<path d="M13.8664 48.71C13.7008 48.6621 14.0756 50.3097 15.2176 50.4317C16.3596 50.5538 15.6796 49.2331 13.8664 48.71Z" fill="#DF3876"/>
<path d="M12.7587 49.8262C12.7587 49.8262 12.6018 52.0448 13.7045 52.3935C14.8073 52.7422 14.8291 50.5672 12.7587 49.8262Z" fill="#DF3876"/>
<path d="M10.7806 51.4736C10.7806 51.4736 10.1572 52.3323 10.859 53.1256C11.5608 53.9189 12.8074 52.7246 10.7806 51.4736Z" fill="#DF3876"/>
<path d="M7.89486 51.9004C7.89486 51.9004 6.21237 52.297 6.4739 53.2865C6.73978 54.2759 8.28715 53.6744 7.89486 51.9004Z" fill="#DF3876"/>
<path d="M1.57866 41.3527C1.57866 41.3527 0.271021 41.1217 0.475884 40.2717C0.680747 39.4217 1.72685 39.7748 1.57866 41.3527Z" fill="#DF3876"/>
<path d="M38.1894 86.739L37.7012 85.1611C37.6489 84.9955 32.6799 68.6195 38.4291 57.8752C41.7723 51.6334 47.5913 49.2796 52.7216 47.2049C56.5399 45.6618 60.1489 44.2017 62.2368 41.3684L63.1347 40.1523L62.6639 41.5864C59.9484 49.8986 55.2148 53.1851 51.0391 56.0837C49.2389 57.3347 47.5346 58.5159 46.1136 60.0022C41.4977 64.8318 38.1153 77.2281 38.1763 85.0827L38.1894 86.7346V86.739ZM61.7704 42.6761C59.5605 44.9644 56.3132 46.2808 52.9046 47.6582C47.8484 49.7024 42.1166 52.0213 38.8606 58.1062C34.2665 66.6886 36.6464 78.9804 37.7274 83.3784C38.1109 75.441 41.3931 64.239 45.7649 59.6666C47.2208 58.141 48.9425 56.9467 50.7645 55.6827C54.6612 52.9759 59.0549 49.9291 61.7704 42.6717V42.6761Z" fill="#DF3876"/>
<path d="M37.9324 85.3314C37.8147 85.3314 37.7101 85.2442 37.6926 85.1222C35.3607 68.646 41.6809 57.5921 48.5373 54.2969C54.4914 51.4332 59.7045 45.1347 59.7568 45.0693C59.844 44.9647 59.9965 44.9517 60.1011 45.0345C60.2057 45.1216 60.2188 45.2742 60.136 45.3788C60.0837 45.4442 54.8052 51.8255 48.7509 54.7328C42.047 57.9539 35.8794 68.816 38.1765 85.0525C38.1939 85.1876 38.1024 85.3096 37.9672 85.327C37.9542 85.327 37.9454 85.327 37.9324 85.327V85.3314Z" fill="#DF3876"/>
<path d="M34.4549 73.9507L34.6162 71.6144C34.8995 67.4692 33.4524 54.6587 28.8147 43.8315C24.1813 33.0174 23.279 26.7451 24.8002 15.8612L25.0443 14.1221L25.2841 15.8612C25.8594 20.0239 28.8321 26.2177 31.7046 32.2023C34.2283 37.4633 36.8436 42.9031 37.7589 46.8696C39.6986 55.2559 35.1349 71.5359 35.0913 71.6972L34.4549 73.9507ZM25.0879 17.426C23.8718 27.303 24.8874 33.4271 29.2636 43.6354C33.3435 53.1506 34.9693 64.2088 35.1262 69.6486C36.2595 65.1024 38.8094 53.5429 37.2882 46.9786C36.3815 43.0644 33.7837 37.6464 31.2687 32.4115C28.7014 27.0677 26.0599 21.5625 25.0879 17.426Z" fill="#DF3876"/>
<path d="M34.8604 71.8761C34.8604 71.8761 34.843 71.8761 34.8342 71.8761C34.6991 71.863 34.6032 71.741 34.6207 71.6059C35.3006 65.5472 36.8872 51.3593 31.5346 41.6698C26.4262 32.4291 25.3234 21.9899 25.3147 21.8852C25.3016 21.7501 25.3975 21.6324 25.5326 21.6194C25.6634 21.6063 25.7854 21.7022 25.7985 21.8373C25.8072 21.9419 26.9056 32.2853 31.9618 41.4344C37.3929 51.2591 35.7932 65.5559 35.1089 71.6625C35.0958 71.7889 34.9912 71.8805 34.8691 71.8805L34.8604 71.8761Z" fill="#DF3876"/>
<path d="M35.8603 88.3572L35.3939 87.9692C35.346 87.93 30.5818 83.9112 26.0356 73.6419C21.5025 63.4075 13.7395 57.9111 10.8889 56.9739L9.54199 56.5293L10.9586 56.4988C16.3025 56.3681 21.812 58.9746 26.101 63.6167C31.2618 69.196 34.6093 77.543 35.7906 87.7513L35.8603 88.3528V88.3572ZM12.1965 57.0088C15.6879 58.7828 22.396 64.227 26.4802 73.4458C30.1416 81.7188 33.9207 85.8683 35.2283 87.1498C33.9948 77.3425 30.7257 69.3311 25.7479 63.948C21.8817 59.7636 17.0042 57.2834 12.2008 57.0088H12.1965Z" fill="#DF3876"/>
<path d="M35.5514 88.0255C35.4511 88.0255 35.3552 87.9645 35.3204 87.8642C35.2811 87.7553 31.5064 77.0937 27.4964 69.3525C23.5168 61.6723 14.3241 57.7625 14.2326 57.7232C14.1105 57.6709 14.0495 57.5271 14.1018 57.4051C14.1541 57.2787 14.298 57.222 14.42 57.2743C14.5159 57.3135 23.8655 61.2931 27.9279 69.1302C31.9597 76.9019 35.7432 87.5983 35.7824 87.703C35.826 87.8294 35.7606 87.9688 35.6342 88.0124C35.608 88.0211 35.5819 88.0255 35.5514 88.0255Z" fill="#DF3876"/>
<path d="M37.883 82.5166L37.7218 81.9325C35.8257 75.0021 36.4141 68.1283 39.5263 60.9145C42.4903 54.045 49.2943 51.8177 49.3641 51.7959C49.4207 51.7785 49.4817 51.809 49.4992 51.8656C49.5166 51.9223 49.4861 51.9833 49.4294 52.0008C49.3597 52.0226 42.6472 54.2238 39.7268 60.9973C36.7236 67.9539 36.0872 74.5923 37.7741 81.27C38.5979 72.3258 39.7094 66.4589 42.9828 61.3983C43.0177 61.346 43.0831 61.3329 43.1354 61.3678C43.1877 61.4027 43.2007 61.468 43.1659 61.5204C39.8401 66.6594 38.7635 72.6527 37.9353 81.9107L37.883 82.5122V82.5166Z" fill="#DF3876"/>
<path d="M35.3731 87.0667L35.1029 86.8183C32.4832 84.421 25.1518 68.5724 24.8423 67.9012C24.8161 67.8489 24.8423 67.7835 24.8946 67.7573C24.9469 67.7312 25.0123 67.7573 25.0384 67.8096C25.1125 67.9666 32.152 83.1918 34.9677 86.3693C32.8101 78.1574 30.0467 71.5582 28.7478 69.4573C28.7172 69.405 28.7303 69.3396 28.7826 69.3091C28.8349 69.2785 28.9003 69.2916 28.9308 69.3439C30.2559 71.4884 33.1022 78.2969 35.2816 86.718L35.3731 87.0755V87.0667Z" fill="#DF3876"/>
<path d="M35.1885 68.951L34.9705 68.9205C35.4936 63.6377 33.9157 50.5134 30.7556 43.8968C27.626 37.3499 26.6714 32.869 26.6627 32.8255C26.6496 32.7688 26.6888 32.7078 26.7455 32.6947C26.8022 32.686 26.8632 32.7208 26.8763 32.7775C26.885 32.8211 27.8352 37.2801 30.9561 43.8009C33.8329 49.8203 35.402 61.1968 35.2844 67.2337C36.653 59.5056 37.4332 50.8316 34.3734 43.3432C34.3516 43.2865 34.3734 43.2255 34.4344 43.1994C34.4911 43.1776 34.5521 43.1994 34.5782 43.2604C37.8822 51.3459 36.7445 60.7827 35.1928 68.951H35.1885Z" fill="#DF3876"/>
</g>
<defs>
<clipPath id="clip0_86_3287">
<rect width="64" height="89.294" fill="white"/>
</clipPath>
</defs>
</svg>
