<svg width="25" height="24" viewBox="0 0 25 24" fill="none" xmlns="http://www.w3.org/2000/svg">
<mask id="mask0_108_2642" style="mask-type:alpha" maskUnits="userSpaceOnUse" x="0" y="0" width="25" height="24">
<rect x="0.5" width="24" height="24" fill="#D9D9D9"/>
</mask>
<g mask="url(#mask0_108_2642)">
<path d="M12.5 21.0004L11.05 19.7004C9.36667 18.1837 7.975 16.8754 6.875 15.7754C5.775 14.6754 4.9 13.6879 4.25 12.8129C3.6 11.9379 3.14583 11.1337 2.8875 10.4004C2.62917 9.66706 2.5 8.91706 2.5 8.15039C2.5 6.58372 3.025 5.27539 4.075 4.22539C5.125 3.17539 6.43333 2.65039 8 2.65039C8.86667 2.65039 9.69167 2.83372 10.475 3.20039C11.2583 3.56706 11.9333 4.08372 12.5 4.75039C13.0667 4.08372 13.7417 3.56706 14.525 3.20039C15.3083 2.83372 16.1333 2.65039 17 2.65039C18.5667 2.65039 19.875 3.17539 20.925 4.22539C21.975 5.27539 22.5 6.58372 22.5 8.15039C22.5 8.91706 22.3708 9.66706 22.1125 10.4004C21.8542 11.1337 21.4 11.9379 20.75 12.8129C20.1 13.6879 19.225 14.6754 18.125 15.7754C17.025 16.8754 15.6333 18.1837 13.95 19.7004L12.5 21.0004ZM12.5 18.3004C14.1 16.8671 15.4167 15.6379 16.45 14.6129C17.4833 13.5879 18.3 12.6962 18.9 11.9379C19.5 11.1796 19.9167 10.5046 20.15 9.91289C20.3833 9.32122 20.5 8.73372 20.5 8.15039C20.5 7.15039 20.1667 6.31706 19.5 5.65039C18.8333 4.98372 18 4.65039 17 4.65039C16.2167 4.65039 15.4917 4.87122 14.825 5.31289C14.1583 5.75456 13.7 6.31706 13.45 7.00039H11.55C11.3 6.31706 10.8417 5.75456 10.175 5.31289C9.50833 4.87122 8.78333 4.65039 8 4.65039C7 4.65039 6.16667 4.98372 5.5 5.65039C4.83333 6.31706 4.5 7.15039 4.5 8.15039C4.5 8.73372 4.61667 9.32122 4.85 9.91289C5.08333 10.5046 5.5 11.1796 6.1 11.9379C6.7 12.6962 7.51667 13.5879 8.55 14.6129C9.58333 15.6379 10.9 16.8671 12.5 18.3004Z" fill="white"/>
</g>
</svg>
