<svg width="48" height="48" viewBox="0 0 48 48" fill="none" xmlns="http://www.w3.org/2000/svg">
<circle cx="24" cy="24" r="24" fill="#DF3876"/>
<path d="M19.2004 18.1202V19.1202C19.5561 19.1202 19.885 18.9313 20.0642 18.6241L19.2004 18.1202ZM20.8804 15.2402V14.2402C20.5247 14.2402 20.1958 14.4291 20.0166 14.7364L20.8804 15.2402ZM27.1204 15.2402L27.9842 14.7364C27.805 14.4291 27.4761 14.2402 27.1204 14.2402V15.2402ZM28.8004 18.1202L27.9366 18.6241C28.1158 18.9313 28.4447 19.1202 28.8004 19.1202V18.1202ZM15.4004 30.3602V20.5202H13.4004V30.3602H15.4004ZM16.8004 19.1202H19.2004V17.1202H16.8004V19.1202ZM20.0642 18.6241L21.7442 15.7441L20.0166 14.7364L18.3366 17.6164L20.0642 18.6241ZM20.8804 16.2402H27.1204V14.2402H20.8804V16.2402ZM26.2566 15.7441L27.9366 18.6241L29.6642 17.6164L27.9842 14.7364L26.2566 15.7441ZM28.8004 19.1202H31.2004V17.1202H28.8004V19.1202ZM32.6004 20.5202V30.3602H34.6004V20.5202H32.6004ZM32.6004 30.3602C32.6004 31.1334 31.9736 31.7602 31.2004 31.7602V33.7602C33.0782 33.7602 34.6004 32.238 34.6004 30.3602H32.6004ZM31.2004 19.1202C31.9736 19.1202 32.6004 19.747 32.6004 20.5202H34.6004C34.6004 18.6425 33.0782 17.1202 31.2004 17.1202V19.1202ZM15.4004 20.5202C15.4004 19.747 16.0272 19.1202 16.8004 19.1202V17.1202C14.9226 17.1202 13.4004 18.6425 13.4004 20.5202H15.4004ZM16.8004 31.7602C16.0272 31.7602 15.4004 31.1334 15.4004 30.3602H13.4004C13.4004 32.238 14.9226 33.7602 16.8004 33.7602V31.7602ZM26.6004 24.8402C26.6004 26.2762 25.4363 27.4402 24.0004 27.4402V29.4402C26.5409 29.4402 28.6004 27.3807 28.6004 24.8402H26.6004ZM24.0004 27.4402C22.5644 27.4402 21.4004 26.2762 21.4004 24.8402H19.4004C19.4004 27.3807 21.4599 29.4402 24.0004 29.4402V27.4402ZM21.4004 24.8402C21.4004 23.4043 22.5644 22.2402 24.0004 22.2402V20.2402C21.4599 20.2402 19.4004 22.2997 19.4004 24.8402H21.4004ZM24.0004 22.2402C25.4363 22.2402 26.6004 23.4043 26.6004 24.8402H28.6004C28.6004 22.2997 26.5409 20.2402 24.0004 20.2402V22.2402ZM31.2004 31.7602H16.8004V33.7602H31.2004V31.7602Z" fill="white"/>
</svg>
