<svg width="48" height="48" viewBox="0 0 48 48" fill="none" xmlns="http://www.w3.org/2000/svg">
<circle cx="24" cy="24" r="24" fill="#DF3876"/>
<path d="M21.2069 28.4545C21.2069 29.8604 20.0953 31 18.7241 31C17.3529 31 16.2414 29.8604 16.2414 28.4545M21.2069 28.4545C21.2069 27.0487 20.0953 25.9091 18.7241 25.9091C17.3529 25.9091 16.2414 27.0487 16.2414 28.4545M21.2069 28.4545H26.7931M16.2414 28.4545H15V18C15 17.4477 15.4477 17 16 17H26.7931V28.4545M32.3793 28.4545C32.3793 29.8604 31.2677 31 29.8966 31C28.5254 31 27.4138 29.8604 27.4138 28.4545M32.3793 28.4545C32.3793 27.0487 31.2677 25.9091 29.8966 25.9091C28.5254 25.9091 27.4138 27.0487 27.4138 28.4545M32.3793 28.4545H33V23.3636L29.8966 20.1818H26.7931V28.4545M27.4138 28.4545H26.7931" stroke="white" stroke-width="2" stroke-linecap="round" stroke-linejoin="round"/>
</svg>
