<svg width="40" height="41" viewBox="0 0 40 41" fill="none" xmlns="http://www.w3.org/2000/svg">
<path d="M10.624 35.2939L26.5615 20.2939L34.0615 27.7939M10.624 35.2939H29.374C32.4806 35.2939 34.999 32.7755 34.999 29.6689V20.2939M10.624 35.2939C7.51742 35.2939 4.99902 32.7755 4.99902 29.6689V10.9189C4.99902 7.81234 7.51742 5.29395 10.624 5.29395H22.8115M27.499 9.11047L31.3338 5.29395M31.3338 5.29395L34.999 8.93795M31.3338 5.29395V14.6689M16.249 13.7314C16.249 15.2847 14.9898 16.5439 13.4365 16.5439C11.8832 16.5439 10.624 15.2847 10.624 13.7314C10.624 12.1781 11.8832 10.9189 13.4365 10.9189C14.9898 10.9189 16.249 12.1781 16.249 13.7314Z" stroke="#DF3876" stroke-width="3.33333" stroke-linecap="round" stroke-linejoin="round"/>
</svg>
