<svg width="64" height="64" viewBox="0 0 64 64" fill="none" xmlns="http://www.w3.org/2000/svg">
<g clip-path="url(#clip0_108_2652)">
<path d="M31.9999 5.76588C40.5443 5.76588 41.5563 5.7984 44.9306 5.95235C48.0506 6.09475 49.745 6.61606 50.8727 7.05416C52.3662 7.63466 53.4324 8.32821 54.5521 9.44793C55.6718 10.5677 56.3653 11.6338 56.9457 13.1273C57.3839 14.255 57.9053 15.9494 58.0476 19.0693C58.2016 22.4437 58.2341 23.4557 58.2341 32.0001C58.2341 40.5445 58.2016 41.5565 58.0476 44.9307C57.9053 48.0507 57.3839 49.7451 56.9457 50.8728C56.3653 52.3664 55.6718 53.4325 54.5521 54.5522C53.4324 55.6719 52.3662 56.3655 50.8727 56.9458C49.745 57.3841 48.0506 57.9054 44.9306 58.0478C41.5569 58.2017 40.5449 58.2342 31.9999 58.2342C23.455 58.2342 22.443 58.2017 19.0693 58.0478C15.9493 57.9054 14.2549 57.3841 13.1273 56.9458C11.6336 56.3655 10.5675 55.6719 9.44781 54.5522C8.32809 53.4325 7.63454 52.3664 7.05416 50.8728C6.61593 49.7451 6.09462 48.0507 5.95223 44.9309C5.79827 41.5565 5.76576 40.5445 5.76576 32.0001C5.76576 23.4557 5.79827 22.4437 5.95223 19.0694C6.09462 15.9494 6.61593 14.255 7.05416 13.1273C7.63454 11.6338 8.32809 10.5677 9.44781 9.44793C10.5675 8.32821 11.6336 7.63466 13.1273 7.05416C14.2549 6.61606 15.9493 6.09475 19.0691 5.95235C22.4435 5.7984 23.4555 5.76588 31.9999 5.76588ZM31.9999 0C23.3092 0 22.2196 0.036837 18.8064 0.192569C15.4003 0.348046 13.0742 0.888915 11.0387 1.68002C8.93437 2.4978 7.14981 3.59199 5.37084 5.37096C3.59186 7.14994 2.49768 8.9345 1.6799 11.0388C0.888788 13.0743 0.347919 15.4004 0.192442 18.8066C0.03671 22.2196 0 23.3093 0 32.0001C0 40.6908 0.03671 41.7805 0.192442 45.1936C0.347919 48.5997 0.888788 50.9258 1.6799 52.9613C2.49768 55.0655 3.59186 56.8502 5.37084 58.6292C7.14981 60.4081 8.93437 61.5023 11.0387 62.3201C13.0742 63.1112 15.4003 63.6521 18.8064 63.8076C22.2196 63.9633 23.3092 64 31.9999 64C40.6907 64 41.7804 63.9633 45.1934 63.8076C48.5996 63.6521 50.9257 63.1112 52.9612 62.3201C55.0655 61.5023 56.8501 60.4081 58.629 58.6292C60.408 56.8502 61.5022 55.0656 62.32 52.9613C63.1111 50.9258 63.652 48.5997 63.8074 45.1936C63.9632 41.7805 64 40.6908 64 32.0001C64 23.3093 63.9632 22.2196 63.8074 18.8066C63.652 15.4004 63.1111 13.0743 62.32 11.0388C61.5022 8.9345 60.408 7.14994 58.629 5.37096C56.8501 3.59199 55.0655 2.4978 52.9612 1.68002C50.9257 0.888915 48.5996 0.348046 45.1934 0.192569C41.7804 0.036837 40.6907 0 31.9999 0ZM31.9999 15.5676C22.9246 15.5676 15.5675 22.9247 15.5675 32.0001C15.5675 41.0754 22.9246 48.4325 31.9999 48.4325C41.0753 48.4325 48.4324 41.0754 48.4324 32.0001C48.4324 22.9247 41.0753 15.5676 31.9999 15.5676ZM31.9999 42.6668C26.1089 42.6668 21.3332 37.8911 21.3332 32.0001C21.3332 26.1091 26.1089 21.3333 31.9999 21.3333C37.8909 21.3333 42.6667 26.1091 42.6667 32.0001C42.6667 37.8911 37.8909 42.6668 31.9999 42.6668ZM52.9216 14.9184C52.9216 17.0392 51.2024 18.7584 49.0816 18.7584C46.9608 18.7584 45.2416 17.0392 45.2416 14.9184C45.2416 12.7976 46.9608 11.0784 49.0816 11.0784C51.2024 11.0784 52.9216 12.7976 52.9216 14.9184Z" fill="white"/>
</g>
<defs>
<clipPath id="clip0_108_2652">
<rect width="64" height="64" fill="white"/>
</clipPath>
</defs>
</svg>
