<svg width="20" height="20" viewBox="0 0 20 20" fill="none" xmlns="http://www.w3.org/2000/svg">
<path d="M9.99968 1.83304C9.75058 1.83121 9.50607 1.90008 9.29454 2.03166C9.08301 2.16323 8.91315 2.35212 8.80468 2.57638L6.95302 6.32971L2.80968 6.93138C2.56324 6.96689 2.33166 7.07069 2.14118 7.23104C1.95069 7.39139 1.80891 7.60187 1.73189 7.83865C1.65488 8.07543 1.6457 8.32904 1.7054 8.57077C1.7651 8.8125 1.89129 9.03268 2.06968 9.20638L5.06968 12.128L4.36135 16.2547C4.31922 16.4998 4.34648 16.7519 4.44007 16.9823C4.53366 17.2127 4.68984 17.4124 4.89096 17.5587C5.09208 17.7051 5.33012 17.7922 5.57818 17.8104C5.82623 17.8285 6.07442 17.7769 6.29468 17.6614L9.99968 15.713V1.83304Z" fill="#DF3876"/>
<path opacity="0.25" d="M10.0002 1.83595C10.2493 1.83404 10.5002 2.00001 10.5002 2.00001C10.5002 2.00001 11.0867 2.20807 11.1952 2.44195L13.0469 6.35634L17.1903 6.98383C17.4367 7.02086 17.6683 7.12912 17.8588 7.29635C18.0493 7.46358 18.1911 7.68309 18.2681 7.93003C18.3451 8.17697 18.3543 8.44147 18.2946 8.69357C18.2349 8.94567 18.1087 9.1753 17.9303 9.35645L14.9303 12.4035L15.6386 16.7072C15.6807 16.9629 15.6535 17.2257 15.5599 17.466C15.4663 17.7064 15.3101 17.9146 15.109 18.0672C14.9079 18.2198 14.6698 18.3107 14.4218 18.3296C14.1737 18.3486 13.9255 18.2947 13.7052 18.1743L10.0002 16.1423V1.83595Z" fill="#1D1D1B"/>
</svg>
