<svg width="265" height="31" viewBox="0 0 265 31" fill="none" xmlns="http://www.w3.org/2000/svg">
<path d="M40.4491 9.72168H37.9869C37.2425 9.72168 36.6698 9.94829 36.3263 10.6848L31.6309 21.2787H34.952C34.952 21.2787 35.5246 19.8624 35.6391 19.5225C35.9827 19.5225 39.2466 19.5225 39.7047 19.5225C39.8192 19.919 40.1055 21.222 40.1055 21.222H43.0831L40.4491 9.72168ZM36.5553 17.1431C36.8416 16.4633 37.8151 13.9139 37.8151 13.9139C37.8151 13.9706 38.1014 13.2341 38.2159 12.8375L38.4449 13.8573C38.4449 13.8573 39.0748 16.6332 39.1893 17.1998H36.5553V17.1431Z" fill="#F3F3DD"/>
<path d="M31.8599 17.483C31.8599 19.8624 29.684 21.4487 26.3056 21.4487C24.874 21.4487 23.4998 21.1654 22.7554 20.8255L23.2135 18.2195L23.6143 18.3895C24.645 18.8427 25.3321 19.0126 26.5919 19.0126C27.508 19.0126 28.4815 18.6727 28.4815 17.8796C28.4815 17.3697 28.0807 17.0298 26.8209 16.4633C25.6184 15.8968 24.0151 14.9904 24.0151 13.3474C24.0151 11.0814 26.2483 9.55176 29.3977 9.55176C30.6002 9.55176 31.6309 9.77837 32.2607 10.0616L31.8026 12.5543L31.5736 12.3277C31.001 12.1011 30.2566 11.8745 29.1686 11.8745C27.9661 11.9311 27.3935 12.441 27.3935 12.8942C27.3935 13.4041 28.0807 13.8007 29.1686 14.3105C31.001 15.1603 31.8599 16.1234 31.8599 17.483Z" fill="#F3F3DD"/>
<path d="M3.9165 9.83501L3.97377 9.6084H8.89823C9.58536 9.6084 10.1007 9.83501 10.2725 10.5715L11.3605 15.6702C10.2725 12.9509 7.753 10.7414 3.9165 9.83501Z" fill="#F3F3DD"/>
<path d="M18.2891 9.72169L13.3074 21.2221H9.92898L7.06592 11.5912C9.12732 12.8942 10.8452 14.9337 11.475 16.35L11.8186 17.5397L14.9107 9.66504H18.2891V9.72169Z" fill="#F3F3DD"/>
<path d="M19.6062 9.66504H22.7556L20.7514 21.2221H17.6021L19.6062 9.66504Z" fill="#F3F3DD"/>
<path d="M82.8043 6.32308L72.9004 6.3584L73.1951 24.6764L83.099 24.6411L82.8043 6.32308Z" fill="#FF5F00"/>
<path d="M73.554 15.5534C73.4938 11.8277 75.1466 8.51718 77.7344 6.36967C75.782 4.82146 73.334 3.89059 70.6801 3.90002C64.3928 3.92236 59.3904 9.15634 59.4945 15.6033C59.5986 22.0503 64.7696 27.2481 71.0568 27.2258C73.7108 27.2164 76.1284 26.2682 78.0305 24.7063C75.3742 22.6098 73.6142 19.279 73.554 15.5534Z" fill="#EB001B"/>
<path d="M96.5055 15.3964C96.6096 21.8434 91.6072 27.0774 85.3199 27.0997C82.666 27.1091 80.218 26.1783 78.2656 24.6301C80.885 22.4824 82.5062 19.172 82.446 15.4463C82.3858 11.7207 80.6264 8.42228 77.9695 6.2934C79.8716 4.7315 82.2892 3.78334 84.9432 3.77391C91.2304 3.75157 96.4019 8.9818 96.5055 15.3964Z" fill="#F79E1B"/>
<path d="M142.947 9.56229L142.057 11.5457H143.842L142.947 9.56229ZM132.676 10.7914C132.844 10.7109 132.943 10.5358 132.943 10.3184C132.943 10.1053 132.839 9.95101 132.671 9.8785C132.518 9.79811 132.283 9.78883 132.058 9.78883H130.466V10.8939H132.037C132.288 10.894 132.498 10.8906 132.676 10.7914ZM112.272 9.56229L111.392 11.5457H113.158L112.272 9.56229ZM153.243 22.2686H150.745V21.2015H153.233C153.479 21.2015 153.652 21.1718 153.756 21.0782C153.854 20.9948 153.91 20.877 153.909 20.7537C153.909 20.6087 153.846 20.4936 153.751 20.4247C153.657 20.3487 153.52 20.3141 153.295 20.3141C152.081 20.2762 150.566 20.3486 150.566 18.7738C150.566 18.0521 151.064 17.2923 152.422 17.2923H154.997V16.3022H152.604C151.882 16.3022 151.357 16.4613 150.986 16.7087V16.3022H147.446C146.88 16.3022 146.215 16.4312 145.901 16.7087V16.3022H139.58V16.7087C139.077 16.3749 138.228 16.3022 137.836 16.3022H133.666V16.7087C133.268 16.3542 132.383 16.3022 131.844 16.3022H127.177L126.11 17.365L125.109 16.3022H118.139V23.2466H124.978L126.078 22.1668L127.115 23.2466L131.33 23.25V21.6164H131.745C132.304 21.6247 132.964 21.6038 133.546 21.3724V23.2464H137.024V21.4363H137.191C137.405 21.4363 137.426 21.4446 137.426 21.6413V23.246H147.99C148.661 23.246 149.362 23.0883 149.75 22.8015V23.246H153.101C153.798 23.246 154.479 23.1561 154.997 22.926V21.6324C154.683 22.0548 154.071 22.2689 153.243 22.2689L153.243 22.2686ZM131.8 20.6289H130.187V22.2981H127.673L126.081 20.6508L124.426 22.2981H119.304V17.3217H124.505L126.096 18.9529L127.741 17.3217H131.873C132.899 17.3217 134.052 17.583 134.052 18.9611C134.052 20.3436 132.931 20.6289 131.8 20.6289ZM139.559 20.4033C139.742 20.6462 139.768 20.8729 139.774 21.3116V22.2982H138.475V21.6756C138.475 21.3762 138.507 20.9329 138.266 20.7015C138.077 20.5233 137.789 20.4807 137.317 20.4807H135.935V22.2982H134.636V17.3217H137.621C138.276 17.3217 138.753 17.3485 139.177 17.5565C139.586 17.7833 139.842 18.0939 139.842 18.6616C139.842 19.4559 139.266 19.8611 138.926 19.9856C139.214 20.0832 139.449 20.2583 139.559 20.4033ZM144.901 18.3509H141.873V19.2555H144.827V20.2709H141.873V21.2611L144.901 21.2655V22.2981H140.585V17.3217H144.901V18.3509ZM148.224 22.2981H145.705V21.2309H148.214C148.459 21.2309 148.633 21.2011 148.742 21.1076C148.831 21.0307 148.895 20.9188 148.895 20.7833C148.895 20.6381 148.826 20.523 148.737 20.454C148.638 20.3781 148.502 20.3437 148.277 20.3437C147.067 20.3056 145.553 20.378 145.553 18.8033C145.553 18.0815 146.046 17.3217 147.402 17.3217H149.994V18.3808H147.622C147.387 18.3808 147.234 18.389 147.104 18.4709C146.962 18.5515 146.91 18.671 146.91 18.8287C146.91 19.0164 147.03 19.1443 147.192 19.1995C147.329 19.2431 147.475 19.2558 147.696 19.2558L148.392 19.2733C149.094 19.2888 149.576 19.4007 149.869 19.6734C150.12 19.913 150.255 20.2156 150.255 20.7277C150.255 21.7983 149.528 22.2981 148.224 22.2981ZM138.194 18.4311C138.038 18.3458 137.808 18.3412 137.578 18.3412H135.985V19.4589H137.556C137.808 19.4589 138.022 19.4507 138.194 19.3563C138.362 19.2631 138.462 19.0915 138.462 18.8787C138.462 18.6658 138.362 18.5117 138.194 18.4311ZM152.643 18.3411C152.408 18.3411 152.251 18.3493 152.12 18.431C151.983 18.5117 151.931 18.6312 151.931 18.7891C151.931 18.9767 152.046 19.1045 152.214 19.1598C152.35 19.2035 152.496 19.2162 152.712 19.2162L153.413 19.2334C154.12 19.2495 154.592 19.3614 154.88 19.6341C154.932 19.6719 154.964 19.7145 155 19.7572V18.3412H152.643L152.643 18.3411ZM131.845 18.3411H130.159V19.6086H131.83C132.327 19.6086 132.636 19.3818 132.636 18.9513C132.636 18.5162 132.312 18.3411 131.845 18.3411ZM120.592 18.3411V19.2459H123.431V20.2613H120.592V21.2514H123.771L125.248 19.7914L123.834 18.3411H120.592ZM128.894 21.8212V17.8315L126.909 19.7943L128.894 21.8212ZM120.701 13.8313V14.6888H131.504L131.499 12.8748H131.708C131.855 12.8795 131.897 12.8919 131.897 13.1141V14.6888H137.485V14.2665C137.936 14.4886 138.637 14.6888 139.559 14.6888H141.91L142.413 13.5837H143.529L144.021 14.6888H148.55V13.6391L149.236 14.6888H152.867V7.75H149.274V8.56948L148.771 7.75H145.085V8.56948L144.623 7.75H139.643C138.809 7.75 138.077 7.85698 137.485 8.15518V7.75H134.049V8.15518C133.672 7.84781 133.159 7.75 132.588 7.75H120.034L119.192 9.54226L118.327 7.75H114.373V8.56948L113.938 7.75H110.566L109 11.0492V13.6882L111.316 8.71292H113.237L115.436 13.4235V8.71292H117.547L119.239 12.088L120.794 8.71292H122.947V13.6882H121.621L121.617 9.79166L119.741 13.6882H118.606L116.726 9.78821V13.6882H114.096L113.599 12.5785H110.906L110.404 13.6882H109V14.6891H111.21L111.708 13.584H112.823L113.32 14.6891H117.667V13.8442L118.055 14.6927H120.312L120.7 13.8315L120.701 13.8313ZM137.725 9.29285C138.143 8.89576 138.798 8.71264 139.689 8.71264H140.941V9.7787H139.715C139.243 9.7787 138.977 9.84323 138.72 10.0735C138.499 10.2829 138.348 10.679 138.348 11.2004C138.348 11.7335 138.464 12.1178 138.704 12.3688C138.903 12.5657 139.265 12.6254 139.605 12.6254H140.186L142.009 8.71281H143.946L146.135 13.4187V8.71287H148.104L150.378 12.1779V8.71287H151.702V13.688H149.87L147.419 9.95384V13.688H144.785L144.282 12.5783H141.595L141.107 13.688H139.594C138.965 13.688 138.17 13.5602 137.719 13.1377C137.264 12.7153 137.028 12.1431 137.028 11.2384C137.028 10.5004 137.169 9.82591 137.725 9.29285ZM135.065 8.7127H136.385V13.688H135.065V8.7127ZM129.116 8.7127H132.091C132.751 8.7127 133.238 8.72883 133.657 8.95101C134.066 9.17324 134.311 9.49771 134.311 10.0526C134.311 10.8459 133.735 11.2557 133.4 11.3788C133.683 11.4778 133.924 11.6528 134.04 11.7977C134.222 12.0452 134.254 12.2662 134.254 12.7105V13.688H132.949L132.945 13.0605C132.945 12.7611 132.976 12.3305 132.74 12.0913C132.552 11.9164 132.263 11.8783 131.798 11.8783H130.41V13.688H129.116L129.116 8.7127ZM123.903 8.7127H128.223V9.74875H125.197V10.6456H128.151V11.6654H125.197V12.659H128.223V13.688H123.903V8.7127Z" fill="#F3F3DD"/>
<path d="M201.302 15.6011C201.302 8.66616 195.451 3.87291 189.041 3.875H183.524C177.037 3.8727 171.698 8.66763 171.698 15.6011C171.698 21.9441 177.038 27.1556 183.524 27.1249H189.041C195.451 27.1553 201.302 21.9424 201.302 15.6011Z" fill="#0079BE"/>
<path d="M183.559 4.85742C177.632 4.85924 172.829 9.62235 172.827 15.5009C172.828 21.3784 177.631 26.1408 183.559 26.1429C189.488 26.1412 194.292 21.3785 194.293 15.5009C194.292 9.62221 189.488 4.85951 183.559 4.85742Z" fill="#F3F3DD"/>
<path d="M176.775 15.4723C176.781 12.5997 178.591 10.1501 181.143 9.17676V21.7664C178.591 20.7936 176.781 18.3453 176.775 15.4724V15.4723ZM186.012 21.7696V9.17711C188.565 10.1482 190.377 12.5992 190.382 15.4731C190.377 18.3479 188.565 20.797 186.012 21.7699V21.7696Z" fill="#0079BE"/>
<path d="M228.546 11.1575C228.055 10.8236 227.415 10.6562 226.624 10.6562H223.565C223.323 10.6562 223.189 10.7761 223.163 11.0156L221.92 18.7345C221.907 18.8103 221.927 18.8796 221.978 18.9427C222.029 19.0058 222.092 19.0372 222.169 19.0372H223.622C223.877 19.0372 224.017 18.9176 224.043 18.6778L224.387 16.5968C224.4 16.496 224.444 16.414 224.521 16.3508C224.597 16.2878 224.693 16.2466 224.808 16.2277C224.923 16.209 225.031 16.1995 225.133 16.1995C225.235 16.1995 225.356 16.2059 225.496 16.2185C225.636 16.231 225.726 16.2372 225.764 16.2372C226.86 16.2372 227.721 15.9316 228.346 15.3197C228.97 14.7081 229.283 13.86 229.283 12.775C229.283 12.0309 229.037 11.4917 228.546 11.1573V11.1575ZM226.969 13.4752C226.905 13.9168 226.739 14.2067 226.472 14.3455C226.204 14.4844 225.821 14.5536 225.324 14.5536L224.693 14.5725L225.018 12.5481C225.044 12.4095 225.127 12.3401 225.267 12.3401H225.63C226.14 12.3401 226.51 12.4128 226.739 12.5576C226.969 12.7027 227.045 13.0087 226.969 13.4752Z" fill="#F3F3DD"/>
<path d="M260.834 10.6562H259.419C259.279 10.6562 259.196 10.7256 259.171 10.8645L257.928 18.7348L257.909 18.7727C257.909 18.836 257.934 18.8957 257.985 18.9525C258.036 19.0091 258.1 19.0375 258.176 19.0375H259.439C259.681 19.0375 259.814 18.9179 259.84 18.6781L261.083 10.9402V10.9214C261.083 10.7447 261 10.6565 260.834 10.6565V10.6562Z" fill="#009CDE"/>
<path d="M243.739 13.7024C243.739 13.6394 243.714 13.5794 243.663 13.5228C243.612 13.4661 243.554 13.4375 243.491 13.4375H242.018C241.878 13.4375 241.763 13.5009 241.674 13.6267L239.647 16.5781L238.806 13.7403C238.742 13.5386 238.602 13.4375 238.385 13.4375H236.951C236.887 13.4375 236.829 13.466 236.779 13.5228C236.728 13.5794 236.702 13.6396 236.702 13.7024C236.702 13.7277 236.826 14.0997 237.075 14.8186C237.324 15.5377 237.591 16.3134 237.878 17.1459C238.165 17.9783 238.315 18.4199 238.327 18.47C237.282 19.8828 236.76 20.6395 236.76 20.7403C236.76 20.9044 236.842 20.9863 237.008 20.9863H238.481C238.621 20.9863 238.735 20.9234 238.825 20.7972L243.701 13.8347C243.726 13.8097 243.739 13.7658 243.739 13.7023V13.7024Z" fill="#F3F3DD"/>
<path d="M257.45 13.4381H255.997C255.818 13.4381 255.71 13.6463 255.672 14.0626C255.34 13.5582 254.735 13.3057 253.855 13.3057C252.937 13.3057 252.156 13.6463 251.513 14.3274C250.869 15.0085 250.547 15.8096 250.547 16.7302C250.547 17.4745 250.767 18.0673 251.206 18.5086C251.646 18.9503 252.236 19.1708 252.975 19.1708C253.345 19.1708 253.721 19.0949 254.104 18.9437C254.486 18.7924 254.785 18.5907 255.003 18.3383C255.003 18.351 254.989 18.4075 254.964 18.5084C254.939 18.6095 254.926 18.6854 254.926 18.7354C254.926 18.9375 255.009 19.0381 255.175 19.0381H256.494C256.736 19.0381 256.876 18.9185 256.915 18.6787L257.699 13.7408C257.711 13.665 257.692 13.5958 257.641 13.5326C257.59 13.4697 257.526 13.4381 257.45 13.4381ZM254.955 17.1653C254.629 17.4807 254.237 17.6383 253.779 17.6383C253.409 17.6383 253.109 17.5375 252.88 17.3356C252.65 17.1342 252.535 16.8567 252.535 16.5031C252.535 16.0368 252.695 15.6423 253.014 15.3207C253.332 14.9991 253.727 14.8383 254.199 14.8383C254.556 14.8383 254.852 14.9424 255.088 15.1504C255.324 15.3586 255.442 15.6455 255.442 16.0114C255.442 16.4654 255.28 16.8502 254.955 17.1653Z" fill="#009CDE"/>
<path d="M235.727 13.4381H234.273C234.094 13.4381 233.986 13.6463 233.948 14.0626C233.604 13.5582 232.998 13.3057 232.131 13.3057C231.214 13.3057 230.433 13.6463 229.789 14.3274C229.145 15.0085 228.823 15.8096 228.823 16.7302C228.823 17.4745 229.043 18.0673 229.483 18.5086C229.923 18.9503 230.512 19.1708 231.252 19.1708C231.609 19.1708 231.979 19.0949 232.361 18.9437C232.743 18.7924 233.049 18.5907 233.279 18.3383C233.228 18.4895 233.202 18.622 233.202 18.7354C233.202 18.9375 233.285 19.0381 233.451 19.0381H234.77C235.012 19.0381 235.153 18.9185 235.191 18.6787L235.975 13.7408C235.988 13.665 235.968 13.5958 235.918 13.5326C235.867 13.4697 235.803 13.4381 235.727 13.4381ZM233.231 17.1747C232.906 17.4841 232.507 17.6383 232.036 17.6383C231.666 17.6383 231.37 17.5375 231.147 17.3356C230.924 17.1342 230.812 16.8567 230.812 16.5031C230.812 16.0368 230.971 15.6423 231.29 15.3207C231.609 14.9991 232.004 14.8383 232.476 14.8383C232.833 14.8383 233.129 14.9424 233.365 15.1504C233.601 15.3586 233.719 15.6455 233.719 16.0114C233.719 16.4781 233.556 16.866 233.231 17.1747Z" fill="#F3F3DD"/>
<path d="M250.27 11.1575C249.779 10.8236 249.138 10.6562 248.348 10.6562H245.307C245.052 10.6562 244.912 10.7761 244.887 11.0156L243.644 18.7345C243.631 18.8103 243.65 18.8796 243.701 18.9427C243.752 19.0058 243.816 19.0372 243.892 19.0372H245.46C245.613 19.0372 245.715 18.9553 245.766 18.7913L246.11 16.5968C246.123 16.496 246.168 16.414 246.244 16.3508C246.321 16.2878 246.416 16.2466 246.531 16.2277C246.646 16.209 246.754 16.1995 246.856 16.1995C246.958 16.1995 247.079 16.2059 247.219 16.2185C247.36 16.231 247.449 16.2372 247.487 16.2372C248.584 16.2372 249.444 15.9316 250.069 15.3197C250.693 14.7081 251.006 13.86 251.006 12.775C251.006 12.0309 250.76 11.4917 250.27 11.1573V11.1575ZM248.31 14.2697C248.029 14.4589 247.608 14.5534 247.047 14.5534L246.435 14.5724L246.761 12.548C246.786 12.4094 246.869 12.3399 247.009 12.3399H247.353C247.634 12.3399 247.857 12.3526 248.023 12.3777C248.188 12.4031 248.348 12.4818 248.501 12.6141C248.654 12.7466 248.73 12.9391 248.73 13.1912C248.73 13.7211 248.59 14.0804 248.31 14.2697Z" fill="#009CDE"/>
</svg>
