<svg width="24" height="10" viewBox="0 0 24 10" fill="none" xmlns="http://www.w3.org/2000/svg">
<g clip-path="url(#clip0_113_3334)">
<path opacity="0.982" fill-rule="evenodd" clip-rule="evenodd" d="M16.7838 0.215393C17.0388 0.208711 17.2934 0.215411 17.5477 0.235493C18.7269 1.58893 19.9061 2.94236 21.0853 4.29579C19.6872 4.18923 18.3338 4.39023 17.025 4.89881C15.2082 5.6324 13.56 6.63071 12.0803 7.89378C11.9856 6.28667 11.9253 4.67863 11.8994 3.06966C13.1596 1.49138 14.7878 0.539956 16.7838 0.215393Z" fill="#FEFFFE"/>
<path opacity="0.984" fill-rule="evenodd" clip-rule="evenodd" d="M6.81394 1.70402C8.57342 1.63625 10.1882 2.07846 11.6582 3.03065C11.685 4.59849 11.685 6.16633 11.6582 7.73417C10.8352 7.0647 9.90383 6.60239 8.86419 6.34724C7.59818 6.02149 6.31175 5.83387 5.00489 5.78442C3.8508 5.75524 2.69837 5.76862 1.54761 5.82462C2.91444 4.51138 4.28128 3.19816 5.64811 1.88493C6.03685 1.7946 6.42548 1.7343 6.81394 1.70402Z" fill="#FEFFFE"/>
<path opacity="0.919" fill-rule="evenodd" clip-rule="evenodd" d="M19.9598 4.83942C20.3353 4.83274 20.7105 4.83942 21.0854 4.85952C21.3439 5.03732 21.5784 5.24504 21.789 5.48263C21.8408 5.54514 21.8676 5.61212 21.8694 5.68364C20.0768 5.45288 18.328 5.64721 16.6231 6.26655C17.7102 6.06036 18.809 5.93304 19.9196 5.88464C20.3525 5.89614 20.7813 5.94305 21.206 6.02534C21.5338 6.10185 21.8018 6.26937 22.0101 6.52786C21.9297 6.54124 21.8493 6.55467 21.7689 6.56806C20.0372 6.44291 18.3085 6.4764 16.5829 6.66856C15.2994 6.80126 14.0934 7.14297 12.9648 7.69369C15.0106 6.05481 17.3423 5.10338 19.9598 4.83942Z" fill="#FEFFFE"/>
<path opacity="0.877" fill-rule="evenodd" clip-rule="evenodd" d="M2.95489 6.20614C4.89077 6.12079 6.7936 6.32851 8.66343 6.82926C9.5854 7.10274 10.443 7.50475 11.2363 8.03529C8.11662 6.81953 4.88711 6.4108 1.54785 6.80916C1.54785 6.64835 1.54785 6.48755 1.54785 6.32674C2.023 6.28839 2.49202 6.24819 2.95489 6.20614Z" fill="#FEFFFE"/>
<path opacity="0.96" fill-rule="evenodd" clip-rule="evenodd" d="M3.31621 6.97047C5.33132 6.91073 7.31456 7.13183 9.26595 7.63378C9.86965 7.79483 10.4593 7.99583 11.0348 8.2368C7.85932 8.3373 4.68344 8.42438 1.50716 8.49811C1.49018 8.05979 1.46338 7.62426 1.42676 7.19157C2.05757 7.08002 2.68738 7.00629 3.31621 6.97047Z" fill="#FEFFFE"/>
<path opacity="0.945" fill-rule="evenodd" clip-rule="evenodd" d="M19.4773 6.96922C20.4158 6.96082 21.3538 6.97425 22.2913 7.00942C22.2779 7.46502 22.2645 7.92066 22.2511 8.37626C19.9585 8.03519 17.6536 7.9213 15.3366 8.03455C14.7197 8.06908 14.1033 8.09586 13.4873 8.11495C15.4356 7.45533 17.4323 7.07342 19.4773 6.96922Z" fill="#FEFFFE"/>
<path opacity="0.946" fill-rule="evenodd" clip-rule="evenodd" d="M23.9803 9.70341C23.9803 9.73023 23.9803 9.757 23.9803 9.78382C23.7659 9.78382 23.5515 9.78382 23.3371 9.78382C19.9548 9.53473 16.5645 9.32705 13.1662 9.1607C12.67 9.50659 12.1206 9.62719 11.518 9.52251C11.2193 9.46542 10.9379 9.36492 10.6738 9.221C7.37138 9.40749 4.0749 9.59507 0.784327 9.78382C0.529722 9.78382 0.275114 9.78382 0.0205078 9.78382C0.382246 9.27592 0.764154 8.78012 1.16624 8.29638C1.1863 8.48352 1.193 8.67109 1.18634 8.85919C4.44149 8.71029 7.69777 8.5964 10.9552 8.51748C11.4607 8.764 11.9833 8.81763 12.523 8.67829C12.6352 8.65574 12.729 8.60215 12.8044 8.51748C12.9853 8.51077 13.1662 8.5041 13.3471 8.49738C16.5026 8.62924 19.6584 8.74985 22.8145 8.85919C22.8012 8.54981 22.8146 8.24163 22.8547 7.93457C23.2309 8.52677 23.6061 9.1164 23.9803 9.70341Z" fill="#FEFFFE"/>
</g>
<defs>
<clipPath id="clip0_113_3334">
<rect width="24" height="9.60804" fill="white" transform="translate(0 0.196289)"/>
</clipPath>
</defs>
</svg>
