<svg width="40" height="41" viewBox="0 0 40 41" fill="none" xmlns="http://www.w3.org/2000/svg">
<path d="M20.2899 36.384V13.1112M17.5816 11.7151C17.8697 11.7797 18.1733 11.7005 18.3808 11.4931C18.5882 11.2856 18.6673 10.9819 18.6028 10.6939C18.3442 9.6376 17.3916 6.10052 16.4135 5.12241C15.1949 3.90381 13.2116 3.89874 11.999 5.11131C10.7865 6.3238 10.7914 8.30713 12.0101 9.52582C13.0042 10.5199 16.5253 11.4565 17.5816 11.7151ZM20.5392 10.6938C20.4746 10.9819 20.5538 11.2855 20.7613 11.493C20.9687 11.7004 21.2724 11.7795 21.5604 11.715C22.6167 11.4564 26.1538 10.5038 27.1319 9.52573C28.3505 8.30713 28.3556 6.3238 27.143 5.11123C25.9305 3.89874 23.9472 3.90364 22.7285 5.12233C21.7344 6.11645 20.7978 9.63754 20.5392 10.6938ZM5.16266 21.2567H34.8354C35.478 21.2567 35.999 20.7357 35.999 20.093V14.2749C35.999 13.6322 35.478 13.1112 34.8354 13.1112H5.16266C4.52 13.1112 3.99902 13.6322 3.99902 14.2749V20.093C3.99902 20.7357 4.52 21.2567 5.16266 21.2567ZM33.0899 21.2567V35.2203C33.0899 35.863 32.569 36.384 31.9263 36.384H8.07175C7.42909 36.384 6.90811 35.863 6.90811 35.2203V21.2567H33.0899Z" stroke="#DF3876" stroke-width="3.33333" stroke-linecap="round" stroke-linejoin="round"/>
</svg>
