<svg width="20" height="21" viewBox="0 0 20 21" fill="none" xmlns="http://www.w3.org/2000/svg">
<mask id="mask0_108_2546" style="mask-type:alpha" maskUnits="userSpaceOnUse" x="0" y="0" width="20" height="21">
<rect y="0.5" width="20" height="20" fill="#D9D9D9"/>
</mask>
<g mask="url(#mask0_108_2546)">
<path d="M9.99984 18.8337C8.98595 18.7087 7.979 18.4344 6.979 18.0107C5.979 17.5871 5.08664 16.9795 4.30192 16.1878C3.5172 15.3962 2.88178 14.3962 2.39567 13.1878C1.90956 11.9795 1.6665 10.5281 1.6665 8.83366V8.00033H2.49984C3.20817 8.00033 3.93734 8.0906 4.68734 8.27116C5.43734 8.45171 6.13873 8.72255 6.7915 9.08366C6.95817 7.88921 7.33664 6.66352 7.92692 5.40658C8.5172 4.14963 9.20817 3.06977 9.99984 2.16699C10.7915 3.06977 11.4825 4.14963 12.0728 5.40658C12.663 6.66352 13.0415 7.88921 13.2082 9.08366C13.8609 8.72255 14.5623 8.45171 15.3123 8.27116C16.0623 8.0906 16.7915 8.00033 17.4998 8.00033H18.3332V8.83366C18.3332 10.5281 18.0901 11.9795 17.604 13.1878C17.1179 14.3962 16.4825 15.3962 15.6978 16.1878C14.913 16.9795 14.0241 17.5871 13.0311 18.0107C12.038 18.4344 11.0276 18.7087 9.99984 18.8337ZM9.95817 17.1253C9.80539 14.8198 9.12137 13.0767 7.90609 11.8962C6.69081 10.7156 5.18039 9.98644 3.37484 9.70866C3.52761 12.0837 4.23248 13.8545 5.48942 15.0212C6.74637 16.1878 8.23595 16.8892 9.95817 17.1253ZM9.99984 11.8337C10.2082 11.5281 10.4616 11.2121 10.7603 10.8857C11.0589 10.5594 11.3471 10.2781 11.6248 10.042C11.5971 9.25033 11.4408 8.42394 11.1561 7.56283C10.8714 6.70171 10.4859 5.86144 9.99984 5.04199C9.51373 5.86144 9.12831 6.70171 8.84359 7.56283C8.55887 8.42394 8.40262 9.25033 8.37484 10.042C8.65262 10.2781 8.94428 10.5594 9.24984 10.8857C9.55539 11.2121 9.80539 11.5281 9.99984 11.8337ZM11.6248 16.7503C12.1387 16.5837 12.6734 16.3406 13.229 16.0212C13.7846 15.7017 14.3019 15.2677 14.7811 14.7191C15.2603 14.1705 15.67 13.4864 16.0103 12.667C16.3505 11.8475 16.5554 10.8614 16.6248 9.70866C15.3193 9.9031 14.1734 10.3371 13.1873 11.0107C12.2012 11.6844 11.4443 12.542 10.9165 13.5837C11.0832 14.0281 11.2255 14.5142 11.3436 15.042C11.4616 15.5698 11.5554 16.1392 11.6248 16.7503Z" fill="white"/>
</g>
</svg>
